<svg xmlns="http://www.w3.org/2000/svg" width="512" height="390" viewBox="0 0 512 390">
  <g id="email" transform="translate(0 -61)">
    <g id="Group_3" data-name="Group 3">
      <g id="Group_2" data-name="Group 2">
        <path id="Path_8" data-name="Path 8" d="M467,61H45a44.477,44.477,0,0,0-19.279,4.51L255,294.789,306.389,245.4l.005-.007a.014.014,0,0,1,.005,0L486.286,65.514A44.479,44.479,0,0,0,467,61Z" fill="rgba(48,54,141,0.85)"/>
      </g>
    </g>
    <g id="Group_5" data-name="Group 5">
      <g id="Group_4" data-name="Group 4">
        <path id="Path_9" data-name="Path 9" d="M507.5,86.728,338.213,256,507.49,425.279A44.477,44.477,0,0,0,512,406V106A44.477,44.477,0,0,0,507.5,86.728Z" fill="rgba(48,54,141,0.85)"/>
      </g>
    </g>
    <g id="Group_7" data-name="Group 7">
      <g id="Group_6" data-name="Group 6">
        <path id="Path_10" data-name="Path 10" d="M4.51,86.721A44.477,44.477,0,0,0,0,106V406a44.487,44.487,0,0,0,4.506,19.274L173.789,256Z" fill="rgba(48,54,141,0.85)"/>
      </g>
    </g>
    <g id="Group_9" data-name="Group 9">
      <g id="Group_8" data-name="Group 8">
        <path id="Path_11" data-name="Path 11" d="M317,277.213l-51.4,49.393a14.992,14.992,0,0,1-21.21,0l-49.4-49.4L25.714,446.486A44.479,44.479,0,0,0,45,451H467a44.477,44.477,0,0,0,19.279-4.51Z" fill="rgba(48,54,141,0.85)"/>
      </g>
    </g>
  </g>
</svg>
